# xmcd
#
# Track frame offsets: 
#        150
#        18375
#        37550
#        54305
#        75555
#        102180
#        120180
#        140313
#        161460
#        180240
#        199455
#        232863
#        254035
#        274763
#        296593
#        316550
#
# Disc length: 4517 seconds
#
# Revision: 0
# Processed by: cddbd v1.4PL0 Copyright (c) Steve Scherf et al.
# Submitted via: ExactAudioCopy v0.95a3
#
DISCID=c111a310
DTITLE=Albert King - King Albert   Truckload Of Lovin'
DYEAR=1976
DGENRE=Blues
TTITLE0=Love Shock
TTITLE1=You Upset Me Baby
TTITLE2=Chump Change
TTITLE3=Let Me Rock You Easy
TTITLE4=Boot Lace
TTITLE5=Love Mechanic
TTITLE6=Call My Job
TTITLE7=Good Time Charlie
TTITLE8=Cold Women With Warm Hearts
TTITLE9=Gonna Make It Somehow
TTITLE10=Sensation, Commucication Together
TTITLE11=I'm Your Mate
TTITLE12=Truckload Of Lovin'
TTITLE13=Hold Hands With One Another
TTITLE14=Cadillac Assembly Line
TTITLE15=Nobody Wants A Loser
EXTD=
EXTT0=
EXTT1=
EXTT2=
EXTT3=
EXTT4=
EXTT5=
EXTT6=
EXTT7=
EXTT8=
EXTT9=
EXTT10=
EXTT11=
EXTT12=
EXTT13=
EXTT14=
EXTT15=
PLAYORDER=
